<svg width="1391" height="124" viewBox="0 0 1391 124" fill="none" xmlns="http://www.w3.org/2000/svg">
<path d="M-0.00126499 182.84V58.312H15.4787L17.1987 71.728C19.0334 69.0907 21.3267 66.6253 24.0787 64.332C26.8307 61.924 30.0987 59.9747 33.8827 58.484C37.7814 56.9933 42.3107 56.248 47.4707 56.248C55.7267 56.248 62.9507 58.2547 69.1427 62.268C75.4494 66.2813 80.3227 71.728 83.7627 78.608C87.3174 85.3733 89.0947 93.1133 89.0947 101.828C89.0947 110.543 87.3174 118.34 83.7627 125.22C80.2081 131.985 75.2774 137.317 68.9707 141.216C62.7787 145.115 55.5547 147.064 47.2987 147.064C40.5334 147.064 34.5707 145.745 29.4107 143.108C24.2507 140.356 20.1801 136.572 17.1987 131.756V182.84H-0.00126499ZM44.5467 132.1C49.8214 132.1 54.4654 130.839 58.4787 128.316C62.6067 125.793 65.8174 122.239 68.1107 117.652C70.5187 113.065 71.7227 107.733 71.7227 101.656C71.7227 95.5787 70.5187 90.304 68.1107 85.832C65.8174 81.2453 62.6067 77.6907 58.4787 75.168C54.4654 72.5307 49.8214 71.212 44.5467 71.212C39.1574 71.212 34.3987 72.5307 30.2707 75.168C26.2574 77.6907 23.1041 81.2453 20.8107 85.832C18.5174 90.304 17.3707 95.5787 17.3707 101.656C17.3707 107.733 18.5174 113.065 20.8107 117.652C23.1041 122.239 26.2574 125.793 30.2707 128.316C34.3987 130.839 39.1574 132.1 44.5467 132.1ZM109.178 145V58.312H124.658L126.206 74.652C128.156 70.7533 130.678 67.4853 133.774 64.848C136.87 62.096 140.482 59.9747 144.61 58.484C148.853 56.9933 153.669 56.248 159.058 56.248V74.48H152.866C149.312 74.48 145.929 74.9387 142.718 75.856C139.508 76.6587 136.641 78.092 134.118 80.156C131.71 82.22 129.818 85.0293 128.442 88.584C127.066 92.1387 126.378 96.5533 126.378 101.828V145H109.178ZM203.578 147.064C196.469 147.064 190.564 145.86 185.862 143.452C181.161 141.044 177.664 137.833 175.37 133.82C173.077 129.692 171.93 125.277 171.93 120.576C171.93 114.843 173.421 109.969 176.402 105.956C179.384 101.828 183.626 98.6747 189.13 96.496C194.634 94.3173 201.228 93.228 208.91 93.228H231.442C231.442 88.1827 230.697 83.9973 229.206 80.672C227.716 77.3467 225.48 74.8813 222.498 73.276C219.632 71.556 215.962 70.696 211.49 70.696C206.33 70.696 201.916 71.9573 198.246 74.48C194.577 76.888 192.284 80.5 191.366 85.316H174.166C174.854 79.2387 176.918 74.0787 180.358 69.836C183.913 65.4787 188.442 62.1533 193.946 59.86C199.45 57.452 205.298 56.248 211.49 56.248C219.632 56.248 226.454 57.6813 231.958 60.548C237.462 63.4147 241.59 67.4853 244.342 72.76C247.209 77.92 248.642 84.112 248.642 91.336V145H233.678L232.302 130.38C231.041 132.673 229.55 134.852 227.83 136.916C226.11 138.98 224.046 140.757 221.638 142.248C219.345 143.739 216.65 144.885 213.554 145.688C210.573 146.605 207.248 147.064 203.578 147.064ZM206.846 133.132C210.516 133.132 213.841 132.387 216.822 130.896C219.804 129.405 222.326 127.399 224.39 124.876C226.569 122.239 228.174 119.315 229.206 116.104C230.353 112.779 230.984 109.396 231.098 105.956V105.44H210.63C205.7 105.44 201.686 106.071 198.59 107.332C195.609 108.479 193.43 110.084 192.054 112.148C190.678 114.212 189.99 116.62 189.99 119.372C189.99 122.239 190.621 124.704 191.882 126.768C193.258 128.717 195.208 130.265 197.73 131.412C200.253 132.559 203.292 133.132 206.846 133.132ZM304.525 145C299.021 145 294.262 144.14 290.249 142.42C286.235 140.7 283.139 137.833 280.961 133.82C278.782 129.807 277.693 124.36 277.693 117.48V72.932H262.729V58.312H277.693L279.757 36.64H294.893V58.312H319.489V72.932H294.893V117.652C294.893 122.583 295.925 125.965 297.989 127.8C300.053 129.52 303.607 130.38 308.653 130.38H318.629V145H304.525ZM338.456 145V21.16H355.656V72.416C358.522 67.3707 362.478 63.4147 367.524 60.548C372.684 57.6813 378.36 56.248 384.552 56.248C391.432 56.248 397.337 57.6813 402.268 60.548C407.198 63.3 410.982 67.4853 413.62 73.104C416.257 78.608 417.576 85.5453 417.576 93.916V145H400.548V95.636C400.548 87.6093 398.828 81.532 395.388 77.404C391.948 73.1613 386.845 71.04 380.08 71.04C375.493 71.04 371.365 72.1293 367.696 74.308C364.026 76.4867 361.102 79.6973 358.924 83.94C356.745 88.068 355.656 93.1133 355.656 99.076V145H338.456ZM468.297 147.064C461.188 147.064 455.282 145.86 450.581 143.452C445.88 141.044 442.382 137.833 440.089 133.82C437.796 129.692 436.649 125.277 436.649 120.576C436.649 114.843 438.14 109.969 441.121 105.956C444.102 101.828 448.345 98.6747 453.849 96.496C459.353 94.3173 465.946 93.228 473.629 93.228H496.161C496.161 88.1827 495.416 83.9973 493.925 80.672C492.434 77.3467 490.198 74.8813 487.217 73.276C484.35 71.556 480.681 70.696 476.209 70.696C471.049 70.696 466.634 71.9573 462.965 74.48C459.296 76.888 457.002 80.5 456.085 85.316H438.885C439.573 79.2387 441.637 74.0787 445.077 69.836C448.632 65.4787 453.161 62.1533 458.665 59.86C464.169 57.452 470.017 56.248 476.209 56.248C484.35 56.248 491.173 57.6813 496.677 60.548C502.181 63.4147 506.309 67.4853 509.061 72.76C511.928 77.92 513.361 84.112 513.361 91.336V145H498.397L497.021 130.38C495.76 132.673 494.269 134.852 492.549 136.916C490.829 138.98 488.765 140.757 486.357 142.248C484.064 143.739 481.369 144.885 478.273 145.688C475.292 146.605 471.966 147.064 468.297 147.064ZM471.565 133.132C475.234 133.132 478.56 132.387 481.541 130.896C484.522 129.405 487.045 127.399 489.109 124.876C491.288 122.239 492.893 119.315 493.925 116.104C495.072 112.779 495.702 109.396 495.817 105.956V105.44H475.349C470.418 105.44 466.405 106.071 463.309 107.332C460.328 108.479 458.149 110.084 456.773 112.148C455.397 114.212 454.709 116.62 454.709 119.372C454.709 122.239 455.34 124.704 456.601 126.768C457.977 128.717 459.926 130.265 462.449 131.412C464.972 132.559 468.01 133.132 471.565 133.132ZM535.315 145V58.312H550.795L551.999 70.524C554.751 66.052 558.42 62.5547 563.007 60.032C567.594 57.5093 572.754 56.248 578.487 56.248C582.844 56.248 586.8 56.8787 590.355 58.14C593.91 59.2867 597.063 61.064 599.815 63.472C602.567 65.88 604.803 68.8613 606.523 72.416C609.619 67.3707 613.747 63.4147 618.907 60.548C624.182 57.6813 629.743 56.248 635.591 56.248C642.586 56.248 648.606 57.6813 653.651 60.548C658.696 63.3 662.538 67.4853 665.175 73.104C667.812 78.608 669.131 85.488 669.131 93.744V145H652.103V95.464C652.103 87.4373 650.44 81.36 647.115 77.232C643.904 73.104 639.146 71.04 632.839 71.04C628.596 71.04 624.812 72.1293 621.487 74.308C618.162 76.4867 615.524 79.64 613.575 83.768C611.74 87.896 610.823 92.9413 610.823 98.904V145H593.623V95.464C593.623 87.4373 591.96 81.36 588.635 77.232C585.424 73.104 580.666 71.04 574.359 71.04C570.346 71.04 566.676 72.1293 563.351 74.308C560.026 76.4867 557.388 79.64 555.439 83.768C553.49 87.896 552.515 92.9413 552.515 98.904V145H535.315ZM735.366 145V58.312H750.846L752.05 70.524C754.802 66.052 758.471 62.5547 763.058 60.032C767.645 57.5093 772.805 56.248 778.538 56.248C782.895 56.248 786.851 56.8787 790.406 58.14C793.961 59.2867 797.114 61.064 799.866 63.472C802.618 65.88 804.854 68.8613 806.574 72.416C809.67 67.3707 813.798 63.4147 818.958 60.548C824.233 57.6813 829.794 56.248 835.642 56.248C842.637 56.248 848.657 57.6813 853.702 60.548C858.747 63.3 862.589 67.4853 865.226 73.104C867.863 78.608 869.182 85.488 869.182 93.744V145H852.154V95.464C852.154 87.4373 850.491 81.36 847.166 77.232C843.955 73.104 839.197 71.04 832.89 71.04C828.647 71.04 824.863 72.1293 821.538 74.308C818.213 76.4867 815.575 79.64 813.626 83.768C811.791 87.896 810.874 92.9413 810.874 98.904V145H793.674V95.464C793.674 87.4373 792.011 81.36 788.686 77.232C785.475 73.104 780.717 71.04 774.41 71.04C770.397 71.04 766.727 72.1293 763.402 74.308C760.077 76.4867 757.439 79.64 755.49 83.768C753.541 87.896 752.566 92.9413 752.566 98.904V145H735.366ZM891.409 145V21.16H908.609V72.416C911.476 67.3707 915.432 63.4147 920.477 60.548C925.637 57.6813 931.313 56.248 937.505 56.248C944.385 56.248 950.29 57.6813 955.221 60.548C960.152 63.3 963.936 67.4853 966.573 73.104C969.21 78.608 970.529 85.5453 970.529 93.916V145H953.501V95.636C953.501 87.6093 951.781 81.532 948.341 77.404C944.901 73.1613 939.798 71.04 933.033 71.04C928.446 71.04 924.318 72.1293 920.649 74.308C916.98 76.4867 914.056 79.6973 911.877 83.94C909.698 88.068 908.609 93.1133 908.609 99.076V145H891.409ZM1021.25 147.064C1014.14 147.064 1008.24 145.86 1003.53 143.452C998.833 141.044 995.335 137.833 993.042 133.82C990.749 129.692 989.602 125.277 989.602 120.576C989.602 114.843 991.093 109.969 994.074 105.956C997.055 101.828 1001.3 98.6747 1006.8 96.496C1012.31 94.3173 1018.9 93.228 1026.58 93.228H1049.11C1049.11 88.1827 1048.37 83.9973 1046.88 80.672C1045.39 77.3467 1043.15 74.8813 1040.17 73.276C1037.3 71.556 1033.63 70.696 1029.16 70.696C1024 70.696 1019.59 71.9573 1015.92 74.48C1012.25 76.888 1009.96 80.5 1009.04 85.316H991.838C992.526 79.2387 994.59 74.0787 998.03 69.836C1001.58 65.4787 1006.11 62.1533 1011.62 59.86C1017.12 57.452 1022.97 56.248 1029.16 56.248C1037.3 56.248 1044.13 57.6813 1049.63 60.548C1055.13 63.4147 1059.26 67.4853 1062.01 72.76C1064.88 77.92 1066.31 84.112 1066.31 91.336V145H1051.35L1049.97 130.38C1048.71 132.673 1047.22 134.852 1045.5 136.916C1043.78 138.98 1041.72 140.757 1039.31 142.248C1037.02 143.739 1034.32 144.885 1031.23 145.688C1028.24 146.605 1024.92 147.064 1021.25 147.064ZM1024.52 133.132C1028.19 133.132 1031.51 132.387 1034.49 130.896C1037.48 129.405 1040 127.399 1042.06 124.876C1044.24 122.239 1045.85 119.315 1046.88 116.104C1048.02 112.779 1048.66 109.396 1048.77 105.956V105.44H1028.3C1023.37 105.44 1019.36 106.071 1016.26 107.332C1013.28 108.479 1011.1 110.084 1009.73 112.148C1008.35 114.212 1007.66 116.62 1007.66 119.372C1007.66 122.239 1008.29 124.704 1009.55 126.768C1010.93 128.717 1012.88 130.265 1015.4 131.412C1017.92 132.559 1020.96 133.132 1024.52 133.132ZM1109.84 145L1077.33 58.312H1095.39L1119.99 128.488L1144.76 58.312H1162.47L1130.14 145H1109.84ZM1201.98 147.064C1194.88 147.064 1188.97 145.86 1184.27 143.452C1179.57 141.044 1176.07 137.833 1173.78 133.82C1171.48 129.692 1170.34 125.277 1170.34 120.576C1170.34 114.843 1171.83 109.969 1174.81 105.956C1177.79 101.828 1182.03 98.6747 1187.54 96.496C1193.04 94.3173 1199.63 93.228 1207.32 93.228H1229.85C1229.85 88.1827 1229.1 83.9973 1227.61 80.672C1226.12 77.3467 1223.89 74.8813 1220.9 73.276C1218.04 71.556 1214.37 70.696 1209.9 70.696C1204.74 70.696 1200.32 71.9573 1196.65 74.48C1192.98 76.888 1190.69 80.5 1189.77 85.316H1172.57C1173.26 79.2387 1175.32 74.0787 1178.76 69.836C1182.32 65.4787 1186.85 62.1533 1192.35 59.86C1197.86 57.452 1203.7 56.248 1209.9 56.248C1218.04 56.248 1224.86 57.6813 1230.36 60.548C1235.87 63.4147 1240 67.4853 1242.75 72.76C1245.62 77.92 1247.05 84.112 1247.05 91.336V145H1232.08L1230.71 130.38C1229.45 132.673 1227.96 134.852 1226.24 136.916C1224.52 138.98 1222.45 140.757 1220.04 142.248C1217.75 143.739 1215.06 144.885 1211.96 145.688C1208.98 146.605 1205.65 147.064 1201.98 147.064ZM1205.25 133.132C1208.92 133.132 1212.25 132.387 1215.23 130.896C1218.21 129.405 1220.73 127.399 1222.8 124.876C1224.98 122.239 1226.58 119.315 1227.61 116.104C1228.76 112.779 1229.39 109.396 1229.5 105.956V105.44H1209.04C1204.11 105.44 1200.09 106.071 1197 107.332C1194.02 108.479 1191.84 110.084 1190.46 112.148C1189.08 114.212 1188.4 116.62 1188.4 119.372C1188.4 122.239 1189.03 124.704 1190.29 126.768C1191.66 128.717 1193.61 130.265 1196.14 131.412C1198.66 132.559 1201.7 133.132 1205.25 133.132ZM1269 145V21.16H1286.2V145H1269ZM1349.04 147.064C1340.78 147.064 1333.44 145.172 1327.02 141.388C1320.6 137.604 1315.55 132.329 1311.88 125.564C1308.33 118.799 1306.55 110.944 1306.55 102C1306.55 92.8267 1308.33 84.8573 1311.88 78.092C1315.55 71.212 1320.6 65.88 1327.02 62.096C1333.44 58.1973 1340.89 56.248 1349.38 56.248C1357.86 56.248 1365.15 58.14 1371.22 61.924C1377.3 65.708 1382 70.7533 1385.33 77.06C1388.65 83.252 1390.32 90.132 1390.32 97.7C1390.32 98.8467 1390.26 100.108 1390.14 101.484C1390.14 102.745 1390.09 104.179 1389.97 105.784H1319.11V93.572H1373.12C1372.77 86.348 1370.36 80.7293 1365.89 76.716C1361.42 72.588 1355.86 70.524 1349.21 70.524C1344.51 70.524 1340.21 71.6133 1336.31 73.792C1332.41 75.856 1329.26 78.952 1326.85 83.08C1324.55 87.0933 1323.41 92.196 1323.41 98.388V103.204C1323.41 109.625 1324.55 115.072 1326.85 119.544C1329.26 123.901 1332.41 127.227 1336.31 129.52C1340.21 131.699 1344.45 132.788 1349.04 132.788C1354.54 132.788 1359.07 131.584 1362.62 129.176C1366.18 126.768 1368.82 123.5 1370.54 119.372H1387.74C1386.24 124.647 1383.72 129.405 1380.17 133.648C1376.61 137.776 1372.2 141.044 1366.92 143.452C1361.76 145.86 1355.8 147.064 1349.04 147.064Z" fill="white"/>
</svg>
